<svg xmlns="http://www.w3.org/2000/svg" xmlns:xlink="http://www.w3.org/1999/xlink" width="1080" zoomAndPan="magnify" viewBox="0 0 810 809.999993" height="1080" preserveAspectRatio="xMidYMid meet" version="1.2"><g id="730f7047e1"><path style=" stroke:none;fill-rule:nonzero;fill:#f5a90f;fill-opacity:1;" d="M 607.5 379.6875 L 607.5 430.3125 L 430.3125 430.3125 L 430.3125 607.5 L 379.6875 607.5 L 379.6875 430.3125 L 202.5 430.3125 L 202.5 379.6875 L 379.6875 379.6875 L 379.6875 202.5 L 430.3125 202.5 L 430.3125 379.6875 Z M 619.777344 619.777344 C 501.164062 738.390625 308.835938 738.390625 190.199219 619.777344 C 71.582031 501.164062 71.582031 308.835938 190.199219 190.199219 C 308.835938 71.582031 501.136719 71.582031 619.777344 190.199219 C 738.417969 308.835938 738.417969 501.164062 619.777344 619.777344 Z M 583.984375 226.015625 C 486.734375 128.765625 326.632812 125.398438 226.015625 226.015625 C 127.320312 324.707031 127.320312 485.292969 226.015625 583.984375 C 326.632812 684.601562 486.757812 681.210938 583.984375 583.984375 C 682.679688 485.292969 682.679688 324.707031 583.984375 226.015625 Z M 583.984375 226.015625 "/></g></svg>