<svg xmlns="http://www.w3.org/2000/svg" xmlns:xlink="http://www.w3.org/1999/xlink" width="1080" zoomAndPan="magnify" viewBox="0 0 810 809.999993" height="1080" preserveAspectRatio="xMidYMid meet" version="1.2"><g id="6f5d2cc024"><path style=" stroke:none;fill-rule:nonzero;fill:#f5a90f;fill-opacity:1;" d="M 76.242188 59.964844 C 50.199219 87.089844 49.117188 88.175781 41.519531 355.085938 C 31.757812 667.566406 35.011719 705.542969 72.984375 737.007812 C 95.769531 757.625 119.640625 761.964844 228.140625 768.472656 C 297.582031 772.8125 435.378906 773.898438 533.027344 771.730469 C 782.578125 764.132812 760.878906 796.683594 770.644531 408.253906 L 777.152344 103.367188 L 748.945312 75.15625 C 720.734375 48.03125 717.476562 46.945312 575.34375 46.945312 C 495.050781 46.945312 356.171875 43.691406 267.203125 39.351562 L 103.367188 32.839844 Z M 484.203125 90.347656 C 534.113281 90.347656 546.046875 93.601562 546.046875 107.707031 C 546.046875 123.980469 548.21875 123.980469 573.171875 107.707031 C 598.128906 91.429688 600.296875 91.429688 600.296875 107.707031 C 600.296875 125.066406 601.382812 125.066406 619.828125 108.792969 C 630.679688 97.941406 649.125 90.347656 659.972656 90.347656 C 678.417969 90.347656 678.417969 91.429688 659.972656 112.046875 C 631.761719 143.511719 649.125 153.277344 680.589844 123.980469 C 717.476562 89.261719 740.261719 105.535156 706.628906 142.425781 L 681.671875 169.550781 L 706.628906 163.042969 C 732.667969 156.53125 737.007812 166.296875 717.476562 185.828125 C 706.628906 196.675781 706.628906 202.101562 719.648438 209.695312 C 732.667969 218.375 733.753906 223.800781 721.820312 242.246094 C 714.222656 255.265625 713.136719 263.945312 719.648438 263.945312 C 732.667969 263.945312 733.753906 342.066406 722.902344 551.472656 C 717.476562 679.503906 714.222656 697.949219 701.203125 681.671875 C 682.757812 655.632812 670.824219 667.566406 687.097656 696.863281 C 696.863281 716.394531 695.777344 719.648438 677.332031 719.648438 C 665.398438 719.648438 653.464844 709.882812 649.125 697.949219 C 639.359375 666.484375 619.828125 670.824219 628.507812 703.375 L 635.019531 730.5 L 487.457031 730.5 C 357.257812 730.5 339.898438 728.328125 339.898438 712.054688 C 339.898438 695.777344 338.8125 695.777344 320.367188 712.054688 C 309.515625 722.902344 288.902344 730.5 274.796875 730.5 C 254.183594 730.5 252.011719 728.328125 263.945312 714.222656 C 285.648438 688.183594 266.117188 680.589844 238.992188 705.542969 C 211.867188 730.5 178.230469 728.328125 199.929688 702.289062 C 209.695312 690.351562 208.613281 687.097656 195.589844 687.097656 C 186.910156 687.097656 173.890625 694.691406 166.296875 703.375 C 151.105469 721.820312 116.386719 725.074219 106.621094 709.882812 C 103.367188 704.457031 110.960938 696.863281 122.894531 692.523438 C 158.703125 681.671875 148.9375 663.226562 110.960938 670.824219 C 80.582031 677.332031 78.410156 676.25 81.667969 652.378906 C 83.835938 633.933594 92.515625 626.339844 115.300781 624.167969 C 155.445312 619.828125 152.191406 600.296875 110.960938 600.296875 C 84.921875 600.296875 78.410156 595.957031 81.667969 580.769531 C 83.835938 571.003906 95.769531 561.238281 109.875 559.066406 C 122.894531 556.898438 133.746094 550.386719 133.746094 543.878906 C 133.746094 537.367188 121.8125 535.199219 106.621094 537.367188 C 86.007812 541.707031 79.496094 538.453125 79.496094 523.261719 C 79.496094 511.328125 87.089844 502.648438 95.769531 502.648438 C 104.453125 502.648438 112.046875 497.222656 112.046875 491.796875 C 112.046875 485.289062 104.453125 480.949219 95.769531 480.949219 C 87.089844 480.949219 79.496094 473.351562 79.496094 464.671875 C 79.496094 455.992188 87.089844 448.398438 95.769531 448.398438 C 104.453125 448.398438 112.046875 442.972656 112.046875 437.546875 C 112.046875 431.039062 105.535156 426.699219 96.855469 426.699219 C 84.921875 426.699219 83.835938 396.316406 88.175781 266.117188 C 90.347656 172.804688 97.941406 100.109375 105.535156 91.429688 C 115.300781 79.496094 145.679688 77.324219 269.371094 83.835938 C 352.917969 87.089844 449.484375 90.347656 484.203125 90.347656 Z M 484.203125 90.347656 "/><path style=" stroke:none;fill-rule:nonzero;fill:#f5a90f;fill-opacity:1;" d="M 122.894531 178.230469 C 122.894531 183.65625 128.320312 185.828125 133.746094 182.570312 C 140.257812 179.316406 144.597656 173.890625 144.597656 170.636719 C 144.597656 168.464844 140.257812 166.296875 133.746094 166.296875 C 128.320312 166.296875 122.894531 171.722656 122.894531 178.230469 Z M 122.894531 178.230469 "/><path style=" stroke:none;fill-rule:nonzero;fill:#f5a90f;fill-opacity:1;" d="M 412.59375 237.90625 C 408.253906 242.246094 404.996094 276.96875 404.996094 313.855469 L 404.996094 382.210938 L 321.453125 385.46875 C 255.265625 387.636719 236.820312 391.976562 236.820312 404.996094 C 236.820312 418.015625 254.183594 422.355469 314.941406 424.527344 L 393.0625 427.78125 L 396.316406 516.753906 C 398.488281 587.277344 402.828125 605.722656 415.847656 605.722656 C 428.867188 605.722656 433.207031 587.277344 435.378906 522.175781 L 438.632812 438.632812 L 516.753906 435.378906 C 577.511719 433.207031 594.871094 428.867188 594.871094 415.847656 C 594.871094 402.828125 578.597656 398.488281 522.175781 396.316406 L 449.484375 393.0625 L 446.226562 316.027344 C 442.972656 245.5 432.121094 219.460938 412.59375 237.90625 Z M 412.59375 237.90625 "/></g></svg>